<?xml version="1.0" encoding="UTF-8" standalone="no"?>
<svg width="102px" height="63px" viewBox="0 0 102 63" version="1.1" xmlns="http://www.w3.org/2000/svg" xmlns:xlink="http://www.w3.org/1999/xlink" xmlns:sketch="http://www.bohemiancoding.com/sketch/ns">
    <!-- Generator: Sketch 3.5.1 (25234) - http://www.bohemiancoding.com/sketch -->
    <title>logo</title>
    <desc>Created with Sketch.</desc>
    <defs>
        <path id="path-1" d="M0,0.447230769 L101.542041,0.447230769 L101.542041,63 L0,63 L0,0.447230769 Z"></path>
        <path id="path-3" d="M0,0.447230769 L101.542041,0.447230769 L101.542041,63 L0,63 L0,0.447230769 Z"></path>
    </defs>
    <g id="Page-1" stroke="none" stroke-width="1" fill="none" fill-rule="evenodd" sketch:type="MSPage">
        <g id="White_Agenda-nav" sketch:type="MSArtboardGroup" transform="translate(-30.000000, -17.000000)">
            <g id="Group" sketch:type="MSLayerGroup" transform="translate(0.000000, -8.000000)">
                <g id="logo" transform="translate(30.000000, 25.000000)">
                    <g id="Group-3">
                        <mask id="mask-2" sketch:name="Clip 2" fill="white">
                            <use xlink:href="#path-1"></use>
                        </mask>
                        <g id="Clip-2"></g>
                        <path d="M81.6179714,54.2499923 C81.6075633,54.2583 81.5971551,54.2659154 81.5867469,54.2742231 L81.3105837,53.9433 C75.6180122,58.6253769 68.3871143,61.1578385 60.9251551,61.1578385 C52.386298,61.1578385 44.3858898,57.9344538 38.3859306,52.0242231 C32.3859714,46.1915308 29.0775633,38.3629154 29.0775633,30.0732231 C29.0775633,23.7033 31.0009918,17.4863769 34.7701347,12.2670692 C38.462951,7.12460769 43.5400531,3.28714615 49.5400122,1.06137692 L49.3096449,0.4473 C43.2319714,2.74991538 38.0015224,6.66422308 34.3087061,11.8835308 C30.4625429,17.2558385 28.3857673,23.5496077 28.3857673,30.0732231 C28.3857673,38.5159154 31.770502,46.4982231 37.924502,52.4846077 C38.5031959,53.0481462 39.1054816,53.5791462 39.7181755,54.0942231 L38.9243796,55.0177615 C45.0013592,60.1602231 52.8477265,63.0000692 60.9251551,63.0000692 C68.8485429,63.0000692 76.463849,60.2370692 82.5415224,55.3251462 L81.6179714,54.2499923 Z" id="Fill-1" fill="#004B86" sketch:type="MSShapeGroup" mask="url(#mask-2)"></path>
                    </g>
                    <path d="M35.0780082,10.8856385 C34.9246612,10.3484077 34.8476408,9.88802308 34.8476408,9.35079231 C34.8476408,7.04817692 36.3859673,4.97540769 39.1552327,4.97540769 C39.770702,4.97540769 40.309151,5.05225385 40.7705796,5.20594615 C41.2320082,4.82240769 41.7704571,4.43817692 42.3089061,4.13148462 C41.386049,3.59425385 40.309151,3.28756154 39.1552327,3.28756154 C35.770498,3.28756154 32.9242122,5.97371538 32.9242122,9.35079231 C32.9242122,10.5021 33.3093143,11.6534077 33.8470694,12.5741769 C34.0011102,12.3443308 34.155151,12.1137923 34.308498,11.9601 C34.5395592,11.5758692 34.8476408,11.1930231 35.0780082,10.8856385" id="Fill-4" fill="#141414" sketch:type="MSShapeGroup"></path>
                    <path d="M43.3860122,4.89904615 C42.8475633,5.20573846 42.3861347,5.51312308 41.9247061,5.89666154 C42.9245837,6.66443077 43.4630327,7.96873846 43.4630327,9.35058462 C43.4630327,11.6532 41.7706653,13.6484308 39.1554408,13.6484308 C37.6934408,13.6484308 36.5395224,13.0343538 35.7707061,12.0367385 C35.6166653,12.2672769 35.4626245,12.4209692 35.3085837,12.6508154 C35.0782163,12.9582 34.847849,13.2648923 34.6931143,13.5715846 C35.8477265,14.6467385 37.3860531,15.3376615 39.1554408,15.3376615 C42.616502,15.3376615 45.3864612,12.7276615 45.3864612,9.35058462 C45.3864612,7.5852 44.616951,5.97350769 43.3860122,4.89904615" id="Fill-6" fill="#141414" sketch:type="MSShapeGroup"></path>
                    <path d="M32.3857633,25.0078154 C32.3857633,26.8500462 31.3088653,28.4617385 29.6935184,29.0758154 L29.6935184,30.0734308 L29.6935184,30.9180462 C32.3087429,30.2271231 34.308498,27.9245077 34.308498,25.0078154 C34.308498,22.9357385 33.1552735,21.0935077 31.4629061,19.9422 C31.2318449,20.5562769 31.0778041,21.0935077 30.8474367,21.6307385 C31.8473143,22.4753538 32.3857633,23.7035077 32.3857633,25.0078154" id="Fill-8" fill="#141414" sketch:type="MSShapeGroup"></path>
                    <path d="M28.4623714,29.3827154 L28.0779633,29.3827154 C25.4627388,29.3827154 23.6926571,27.3874846 23.6926571,25.0080231 C23.6926571,22.7822538 25.2316776,20.7101769 28.0779633,20.7101769 C28.6934327,20.7101769 29.308902,20.7863308 29.7696367,21.0168692 C29.9243714,20.4789462 30.0777184,19.9424077 30.3087796,19.4051769 C29.6162898,19.1746385 28.8467796,19.0209462 28.0779633,19.0209462 C24.6162082,19.0209462 21.8469429,21.7077923 21.8469429,25.0080231 C21.8469429,28.4619462 24.6162082,31.0712538 28.0779633,31.0712538 L28.4623714,31.0712538 C28.4623714,30.7645615 28.385351,30.3803308 28.385351,30.0736385 C28.385351,29.8431 28.4623714,29.6132538 28.4623714,29.3827154" id="Fill-10" fill="#141414" sketch:type="MSShapeGroup"></path>
                    <path d="M32.5395265,36.5206846 C35.3087918,36.5206846 36.8471184,38.5927615 36.8471184,40.8185308 C36.8471184,42.8137615 35.6168735,44.5791462 33.6934449,45.0402231 C34.0008327,45.5774538 34.3089143,46.0378385 34.616302,46.5750692 C37.0011592,45.7311462 38.7705469,43.5815308 38.7705469,40.8185308 C38.7705469,37.5183 35.9242612,34.8321462 32.5395265,34.8321462 C31.6936898,34.8321462 30.8471592,34.9858385 30.1553633,35.2925308 C30.2316898,35.8297615 30.3087102,36.4438385 30.462751,36.9810692 C31.0782204,36.6743769 31.7700163,36.5206846 32.5395265,36.5206846" id="Fill-12" fill="#141414" sketch:type="MSShapeGroup"></path>
                    <path d="M28.231449,40.8184615 C28.231449,39.6671538 28.616551,38.5926923 29.3853673,37.7487692 C29.2313265,37.1346923 29.0779796,36.5206154 29.0009592,35.9065385 C27.3856122,36.981 26.3087143,38.8232308 26.3087143,40.8184615 C26.3087143,44.2730769 29.0779796,46.8816923 32.5397347,46.8816923 C32.770102,46.8816923 33.0781837,46.8816923 33.3092449,46.8055385 C33.0011633,46.2683077 32.6167551,45.7310769 32.3086735,45.1938462 C29.8474898,45.0401538 28.231449,43.1979231 28.231449,40.8184615" id="Fill-14" fill="#141414" sketch:type="MSShapeGroup"></path>
                    <path d="M62.7713551,35.0624077 L62.7713551,42.0471 C62.7713551,43.6587923 62.2329061,45.1936385 60.1561306,45.1936385 C58.0786612,45.1936385 57.5402122,43.6587923 57.5402122,42.0471 L57.5402122,35.0624077 L55.6174776,35.0624077 L55.6174776,42.4306385 C55.6174776,44.9631 57.2328245,46.8821769 60.1561306,46.8821769 C63.0794367,46.8821769 64.6940898,44.9631 64.6940898,42.4306385 L64.6940898,35.0624077 L62.7713551,35.0624077 Z" id="Fill-16" fill="#141414" sketch:type="MSShapeGroup"></path>
                    <path d="M64.3098898,13.4952923 L69.5410327,13.4952923 L69.5410327,15.1069846 L62.3864612,15.1069846 L62.3864612,3.51775385 L64.3098898,3.51775385 L64.3098898,13.4952923 Z" id="Fill-18" fill="#141414" sketch:type="MSShapeGroup"></path>
                    <path d="M0,19.2516231 L6.76946939,19.2516231 L6.76946939,20.9394692 L1.92273469,20.9394692 L1.92273469,23.7031615 L6.69244898,23.7031615 L6.69244898,25.3917 L1.92273469,25.3917 L1.92273469,29.1523154 L6.76946939,29.1523154 L6.76946939,30.8408538 L0,30.8408538 L0,19.2516231 Z" id="Fill-20" fill="#141414" sketch:type="MSShapeGroup"></path>
                    <path d="M38.2321673,18.6375462 L46.2325755,26.8497 L46.2325755,19.2516231 L48.1553102,19.2516231 L48.1553102,31.3012385 L40.154902,23.2427769 L40.154902,30.8408538 L38.2321673,30.8408538 L38.2321673,18.6375462 Z" id="Fill-22" fill="#141414" sketch:type="MSShapeGroup"></path>
                    <mask id="mask-4" sketch:name="Clip 25" fill="white">
                        <use xlink:href="#path-3"></use>
                    </mask>
                    <g id="Clip-25"></g>
                    <path d="M85.9263265,19.2516923 L87.8497551,19.2516923 L87.8497551,30.8409231 L85.9263265,30.8409231 L85.9263265,19.2516923 Z" id="Fill-24" fill="#141414" sketch:type="MSShapeGroup" mask="url(#mask-4)"></path>
                    <path d="M18.6927837,36.7508769 L18.6927837,39.5138769 L22.8463347,39.5138769 L22.8463347,41.1262615 L18.6927837,41.1262615 L18.6927837,46.6515692 L16.770049,46.6515692 L16.770049,35.0623385 L23.0010694,35.0623385 L23.0010694,36.7508769 L18.6927837,36.7508769 Z" id="Fill-26" fill="#141414" sketch:type="MSShapeGroup" mask="url(#mask-4)"></path>
                    <path d="M26.3855265,10.7322231 L26.4625469,10.7322231 L28.3082612,3.51768462 L30.1553633,3.51768462 L26.9239755,15.5679923 L22.846751,6.89476154 L18.7702204,15.5679923 L15.4625061,3.51768462 L17.3852408,3.51768462 L19.231649,10.7322231 L22.846751,3.28714615 L26.3855265,10.7322231 Z" id="Fill-27" fill="#141414" sketch:type="MSShapeGroup" mask="url(#mask-4)"></path>
                    <path d="M70.8485755,23.6262462 L70.7715551,23.6262462 L68.9251469,30.8407846 L67.0794327,30.8407846 L70.3101265,18.7911692 L74.387351,27.5405538 L78.4645755,18.7911692 L81.7722898,30.8407846 L79.8488612,30.8407846 L78.0024531,23.6262462 L77.9254327,23.6262462 L74.387351,31.1481692 L70.8485755,23.6262462 Z" id="Fill-28" fill="#141414" sketch:type="MSShapeGroup" mask="url(#mask-4)"></path>
                    <path d="M71.8485918,39.4371 L71.8485918,39.4371 L70.0021837,46.6516385 L68.079449,46.6516385 L71.3101429,34.6013308 L75.4643878,43.2745615 L79.5416122,34.6013308 L82.7716122,46.6516385 L80.8488776,46.6516385 L79.0024694,39.4371 L75.4643878,46.8821769 L71.8485918,39.4371 Z" id="Fill-29" fill="#141414" sketch:type="MSShapeGroup" mask="url(#mask-4)"></path>
                    <path d="M46.0015837,35.0624077 C47.0784816,35.0624077 48.3094204,35.0624077 49.2322776,35.5996385 C50.232849,36.1368692 50.8476245,37.2881769 50.8476245,38.3626385 C50.8476245,40.0511769 49.6944,41.4330231 48.0013388,41.5860231 L51.6941551,46.6516385 L49.5403592,46.6516385 L46.0786041,41.7397154 L44.7706449,41.7397154 L44.7706449,46.6516385 L42.8479102,46.6516385 L42.8479102,35.0624077 L46.0015837,35.0624077 Z M44.7706449,40.2048692 L45.6171755,40.2048692 C47.155502,40.2048692 49.0019102,40.2810231 49.0019102,38.4394846 C49.0019102,36.5972538 47.0784816,36.6741 45.5401551,36.6741 L44.7706449,36.6741 L44.7706449,40.2048692 Z" id="Fill-30" fill="#141414" sketch:type="MSShapeGroup" mask="url(#mask-4)"></path>
                    <path d="M52.5401306,3.51740769 C53.6170286,3.51740769 54.8479673,3.51740769 55.7708245,4.05463846 C56.7713959,4.59186923 57.309151,5.74317692 57.309151,6.81763846 C57.309151,8.50686923 56.2329469,9.88802308 54.4635592,10.0410231 L58.232702,15.1066385 L56.0789061,15.1066385 L52.5401306,10.1947154 L51.3091918,10.1947154 L51.3091918,15.1066385 L49.3864571,15.1066385 L49.3864571,3.51740769 L52.5401306,3.51740769 Z M51.3091918,8.65986923 L52.1557224,8.65986923 C53.694049,8.65986923 55.4634367,8.73671538 55.4634367,6.89448462 C55.4634367,5.05225385 53.5400082,5.12979231 52.078702,5.12979231 L51.3091918,5.12979231 L51.3091918,8.65986923 Z" id="Fill-31" fill="#141414" sketch:type="MSShapeGroup" mask="url(#mask-4)"></path>
                    <path d="M74.8486408,13.4952923 L75.9255388,13.4952923 C78.4644367,13.4952923 80.8486,12.5738308 80.8486,9.2736 C80.8486,5.89652308 78.4644367,5.12944615 75.9255388,5.12944615 L74.8486408,5.12944615 L74.8486408,13.4952923 Z M72.9252122,3.51775385 L76.0788857,3.51775385 C79.771702,3.51775385 82.7720286,5.28244615 82.7720286,9.2736 C82.7720286,13.2647538 79.8487224,15.1069846 76.0788857,15.1069846 L72.9252122,15.1069846 L72.9252122,3.51775385 Z" id="Fill-32" fill="#141414" sketch:type="MSShapeGroup" mask="url(#mask-4)"></path>
                    <path d="M100.541886,28.8456231 C99.9264163,29.2291615 99.2339265,29.3828538 98.3880898,29.3828538 C95.8491918,29.3828538 94.080498,27.4637769 94.080498,25.0843154 C94.080498,22.7823923 95.6188245,20.7096231 98.3880898,20.7096231 C99.2339265,20.7096231 99.9264163,20.8633154 100.541886,21.1700077 L101.464743,19.7888538 C100.618906,19.3284692 99.5420082,19.0210846 98.3880898,19.0210846 C95.0033551,19.0210846 92.1570694,21.7079308 92.1570694,25.0843154 C92.1570694,28.4620846 95.0033551,31.0713923 98.3880898,31.0713923 C99.5420082,31.0713923 100.618906,30.8408538 101.541763,30.3036231 L100.541886,28.8456231 Z" id="Fill-33" fill="#141414" sketch:type="MSShapeGroup" mask="url(#mask-4)"></path>
                    <path d="M18.7699429,28.8456231 C18.1544735,29.2291615 17.4619837,29.3828538 16.6931673,29.3828538 C14.077249,29.3828538 12.3078612,27.4637769 12.3078612,25.0843154 C12.3078612,22.7823923 13.8461878,20.7096231 16.6931673,20.7096231 C17.4619837,20.7096231 18.1544735,20.8633154 18.7699429,21.1700077 L19.7698204,19.7888538 C18.8469633,19.3284692 17.7693714,19.0210846 16.6931673,19.0210846 C13.2314122,19.0210846 10.4621469,21.7079308 10.4621469,25.0843154 C10.4621469,28.4620846 13.2314122,31.0713923 16.6931673,31.0713923 C17.7693714,31.0713923 18.8469633,30.8408538 19.7698204,30.3036231 L18.7699429,28.8456231 Z" id="Fill-34" fill="#141414" sketch:type="MSShapeGroup" mask="url(#mask-4)"></path>
                    <path d="M62.6944735,25.0845231 C62.6944735,22.7819077 61.1561469,20.7098308 58.3868816,20.7098308 C55.5405959,20.7098308 54.0015755,22.7819077 54.0015755,25.0845231 C54.0015755,27.4639846 55.7709633,29.3823692 58.3868816,29.3823692 C60.9250857,29.3823692 62.6944735,27.4639846 62.6944735,25.0845231 M64.617902,25.0845231 C64.617902,28.4616 61.7709224,31.0716 58.3868816,31.0716 C54.9251265,31.0716 52.1558612,28.4616 52.1558612,25.0845231 C52.1558612,21.7074462 54.9251265,19.0212923 58.3868816,19.0212923 C61.7709224,19.0212923 64.617902,21.7074462 64.617902,25.0845231" id="Fill-35" fill="#141414" sketch:type="MSShapeGroup" mask="url(#mask-4)"></path>
                </g>
            </g>
        </g>
    </g>
</svg>